<svg fill="none" height="60" viewBox="0 0 60 60" width="60" xmlns="http://www.w3.org/2000/svg"><g clip-rule="evenodd" fill-rule="evenodd"><path d="m59.314 0h-58.628a.686.686 0 0 0 -.686.686v58.628a.686.686 0 0 0 .686.686h58.628a.686.686 0 0 0 .686-.686v-58.628a.686.686 0 0 0 -.686-.686z" fill="#fff"/><path d="m16.457 40.458v5.142h1.664l5.167-5.142h-6.83zm3.894 5.142h23.364v-5.142h-18.197l-5.168 5.142zm19.632-31.371h-23.183v5.143h18.056z" fill="#49c5b6"/><path d="m59.314 0h-58.628a.686.686 0 0 0 -.686.686v58.628a.686.686 0 0 0 .686.686h58.628a.686.686 0 0 0 .686-.686v-58.628a.686.686 0 0 0 -.686-.686zm-13.715 20.129a.78.78 0 0 1 -.023.217c-.009.029-.014.056-.024.083a.866.866 0 0 1 -.04.077.93.93 0 0 1 -.13.192l-18.282 18.216h17.334c.434 0 .822.298.822.733v6.71a.818.818 0 0 1 -.822.786h-28.734a.785.785 0 0 1 -.785-.787v-6.719c0-.048.006-.096.015-.143 0-.026.014-.047.02-.071.007-.024.014-.052.024-.076a.588.588 0 0 1 .042-.08c.01-.018.019-.038.03-.056a.76.76 0 0 1 .1-.122l18.14-18.175h-17.196a.83.83 0 0 1 -.842-.785v-6.71c0-.434.402-.733.842-.733h28.736a.73.73 0 0 1 .772.734v6.709z" fill="#49c5b6"/><path d="m17.597 38.914h7.273l18.05-18h-7.41l-17.912 18zm19.481-19.542h6.979v-5.143h-1.853z" fill="#49c5b6"/></g><path d="m33.078 20.914h12.594l-3.633 3.203-10.868-1.3z" fill="#30998c" opacity=".5"/></svg>