<svg xmlns="http://www.w3.org/2000/svg" fill="none" viewBox="0 0 60 60" width="60" height="60"><path fill="#fff" fill-rule="evenodd" d="M59.314 0H.686A.686.686 0 0 0 0 .686v58.628A.686.686 0 0 0 .686 60h58.628a.686.686 0 0 0 .686-.686V.686A.686.686 0 0 0 59.314 0z" clip-rule="evenodd"/><path fill="#49C5B6" fill-rule="evenodd" d="M16.457 40.458V45.6h1.664l5.167-5.142h-6.83zm3.894 5.142h23.364v-5.142H25.518L20.35 45.6zm19.632-31.371H16.8v5.143h18.056l5.127-5.143z" clip-rule="evenodd"/><path fill="#49C5B6" fill-rule="evenodd" d="M59.314 0H.686A.686.686 0 0 0 0 .686v58.628A.686.686 0 0 0 .686 60h58.628a.686.686 0 0 0 .686-.686V.686A.686.686 0 0 0 59.314 0zM45.599 20.129a.78.78 0 0 1-.023.217c-.009.029-.014.056-.024.083a.866.866 0 0 1-.04.077.93.93 0 0 1-.13.192L27.1 38.914h17.334c.434 0 .822.298.822.733v6.71a.818.818 0 0 1-.822.786H15.7a.785.785 0 0 1-.785-.787v-6.719c0-.048.006-.096.015-.143 0-.026.014-.047.02-.071.007-.024.014-.052.024-.076a.588.588 0 0 1 .042-.08c.01-.018.019-.038.03-.056a.76.76 0 0 1 .1-.122l18.14-18.175H16.09a.83.83 0 0 1-.842-.785v-6.71c0-.434.402-.733.842-.733h28.736a.73.73 0 0 1 .772.734v6.709z" clip-rule="evenodd"/><path fill="#49C5B6" fill-rule="evenodd" d="M17.597 38.914h7.273l18.05-18h-7.41l-17.912 18zm19.481-19.542h6.979v-5.143h-1.853l-5.126 5.143z" clip-rule="evenodd"/><path fill="#30998C" d="M33.078 20.914h12.594l-3.633 3.203-10.868-1.3 1.907-1.903z" opacity=".5"/></svg>
