<svg id="Layer_2" data-name="Layer 2" xmlns="http://www.w3.org/2000/svg" viewBox="0 0 300 300"><defs><style>.cls-2{stroke-width:0;fill:#fff}</style></defs><g id="Layer_1-2" data-name="Layer 1"><path style="stroke-width:0;fill:#34427e" d="M0 0h300v300H0z"/><path class="cls-2" d="M110.91 81.24c-6.9 28.5-16.46 72.75-19.82 89.39-4.07-.18-21.59-.18-24.78 0 4.25-16.64 15.4-60.89 21.59-89.39-11.33 0-26.37.35-32.57.71l5.31-22.48c5.66.18 25.49.53 44.25.53s38.76-.35 44.43-.53l-5.31 22.48c-6.02-.35-21.42-.71-33.1-.71ZM205.43 143.9c2.83 4.42 7.79 11.5 10.44 14.87-12.39 10.62-24.78 14.16-37.52 14.16-25.84 0-36.99-14.16-36.99-35.58 0-27.44 17.17-55.58 51.51-55.58 20.89 0 30.44 11.86 30.44 25.49 0 7.08-2.48 15.04-6.73 21.06-5.13-3.01-11.68-5.13-16.11-6.37 2.12-3.72 3.01-6.9 3.01-10.44 0-6.9-4.96-10.97-13.28-10.97-16.46 0-27.44 15.93-27.44 33.63 0 13.63 6.73 19.65 18.05 19.65 8.32 0 16.99-2.66 24.6-9.91ZM70.52 211.5c-1.4 1.28-3.18 1.92-5.36 1.92-2.69 0-4.81-.86-6.35-2.59-1.54-1.74-2.31-4.11-2.31-7.13 0-3.27.88-5.79 2.63-7.55 1.52-1.54 3.46-2.31 5.81-2.31 3.15 0 5.45 1.03 6.91 3.1.8 1.16 1.24 2.32 1.29 3.49h-3.91c-.25-.9-.58-1.57-.98-2.03-.71-.81-1.76-1.22-3.16-1.22s-2.54.57-3.36 1.72c-.82 1.15-1.23 2.77-1.23 4.87s.43 3.67 1.3 4.72c.87 1.04 1.97 1.57 3.31 1.57s2.42-.45 3.14-1.35c.4-.48.73-1.21.99-2.17h3.87c-.34 2.04-1.2 3.7-2.59 4.98ZM81.95 202.39c-1.46 0-2.43.47-2.93 1.42-.28.53-.42 1.35-.42 2.46v6.61h-3.64v-13.84h3.45v2.41c.56-.92 1.05-1.55 1.46-1.89.68-.57 1.56-.85 2.64-.85h.17c.05 0 .15.01.31.02v3.71c-.23-.03-.43-.04-.61-.05s-.32-.01-.43-.01ZM84.83 200.55c.96-1.22 2.6-1.83 4.93-1.83 1.52 0 2.86.3 4.04.9s1.76 1.74 1.76 3.4v6.35c0 .44 0 .97.03 1.6.03.47.1.8.22.96s.3.31.53.42v.53H92.4c-.11-.28-.19-.54-.23-.79s-.08-.52-.1-.84c-.5.54-1.07 1-1.73 1.38-.78.45-1.66.67-2.64.67-1.25 0-2.29-.36-3.1-1.07-.82-.72-1.23-1.73-1.23-3.04 0-1.7.66-2.93 1.97-3.69.72-.42 1.78-.71 3.17-.89l1.23-.15c.67-.08 1.15-.19 1.43-.32.52-.22.77-.56.77-1.03 0-.57-.2-.96-.59-1.17-.39-.21-.97-.32-1.73-.32-.85 0-1.46.21-1.82.63-.25.31-.42.74-.51 1.27H83.8c.08-1.21.41-2.21 1.02-2.98Zm2.69 9.72c.34.28.75.42 1.24.42.78 0 1.5-.23 2.15-.69s1-1.29 1.02-2.5v-1.35c-.23.14-.46.26-.69.35-.23.09-.55.17-.96.25l-.81.15c-.76.14-1.31.3-1.64.5-.56.33-.84.84-.84 1.54 0 .62.17 1.06.52 1.33ZM104.45 194.07v2.95c-.2-.03-.54-.04-1.02-.06-.48-.01-.81.09-.99.32-.18.22-.27.47-.27.74v1.17h2.37v2.55h-2.37v11.16h-3.61v-11.16h-2.02v-2.55h1.98v-.89c0-1.48.25-2.5.75-3.06.52-.83 1.79-1.24 3.8-1.24.23 0 .44 0 .62.02.19.01.44.03.76.06Z"/><path class="cls-2" d="M112.15 210.32v2.7l-1.71.06c-1.71.06-2.88-.24-3.5-.89-.41-.42-.61-1.05-.61-1.92v-8.52h-1.93v-2.58h1.93v-3.86h3.58v3.86h2.25v2.58h-2.25v7.31c0 .57.07.92.22 1.06.14.14.58.21 1.32.21h.35c.12 0 .24 0 .36-.02ZM70.91 218.18v3.31h-5.6v15.4h-3.94v-15.4h-5.62v-3.31h15.16ZM82.03 232.83c-.09.82-.52 1.65-1.28 2.5-1.19 1.35-2.84 2.02-4.98 2.02-1.76 0-3.31-.57-4.66-1.7s-2.02-2.98-2.02-5.54c0-2.4.61-4.23 1.82-5.51s2.79-1.92 4.73-1.92c1.15 0 2.19.22 3.11.65s1.68 1.11 2.29 2.04c.54.82.89 1.77 1.05 2.86.09.63.13 1.55.11 2.74h-9.47c.05 1.39.49 2.36 1.31 2.92.5.35 1.1.52 1.8.52.74 0 1.35-.21 1.82-.63.25-.23.48-.55.67-.95h3.69Zm-3.58-4.24c-.06-.96-.35-1.68-.87-2.18-.52-.49-1.17-.74-1.94-.74-.84 0-1.49.26-1.95.79s-.75 1.24-.87 2.13h5.62ZM91.6 226.86c-.3-.67-.9-1-1.79-1-1.03 0-1.73.33-2.08 1-.19.38-.29.95-.29 1.7v8.33h-3.67v-13.81h3.52v2.02c.45-.72.87-1.23 1.27-1.54.7-.54 1.61-.81 2.73-.81 1.06 0 1.91.23 2.56.7.52.43.92.99 1.19 1.66.47-.81 1.06-1.41 1.76-1.79.74-.38 1.57-.57 2.49-.57.61 0 1.21.12 1.8.36s1.13.65 1.61 1.24c.39.48.65 1.08.79 1.78.08.47.13 1.15.13 2.04l-.03 8.72h-3.71v-8.81c0-.52-.08-.96-.25-1.29-.32-.64-.91-.96-1.78-.96-1 0-1.69.42-2.07 1.24-.19.44-.29.97-.29 1.59v8.24h-3.64v-8.24c0-.82-.08-1.42-.25-1.79ZM117.74 224.54c1.12 1.19 1.68 2.95 1.68 5.26 0 2.44-.55 4.29-1.64 5.57s-2.51 1.92-4.23 1.92c-1.1 0-2.01-.28-2.74-.83-.4-.3-.79-.75-1.17-1.33v7.21h-3.58v-19.28h3.47v2.04c.39-.6.8-1.08 1.24-1.42.8-.62 1.76-.93 2.87-.93 1.62 0 2.99.6 4.11 1.79Zm-2.06 5.43c0-1.07-.24-2.01-.73-2.83s-1.28-1.23-2.37-1.23c-1.31 0-2.21.62-2.7 1.87-.25.66-.38 1.5-.38 2.51 0 1.61.43 2.74 1.28 3.39.51.38 1.11.57 1.8.57 1.01 0 1.78-.39 2.3-1.17s.79-1.82.79-3.11ZM121.3 218.18h3.62v18.71h-3.62v-18.71ZM128.16 224.55c.96-1.22 2.6-1.83 4.93-1.83 1.52 0 2.86.3 4.04.9s1.76 1.74 1.76 3.4v6.35c0 .44 0 .97.03 1.6.03.47.1.8.22.96s.3.31.53.42v.53h-3.94c-.11-.28-.19-.54-.23-.79s-.08-.52-.1-.84c-.5.54-1.07 1-1.73 1.38-.78.45-1.66.67-2.64.67-1.25 0-2.29-.36-3.1-1.07-.82-.72-1.23-1.73-1.23-3.04 0-1.7.66-2.93 1.97-3.69.72-.42 1.78-.71 3.17-.89l1.23-.15c.67-.08 1.15-.19 1.43-.32.52-.22.77-.56.77-1.03 0-.57-.2-.96-.59-1.17-.39-.21-.97-.32-1.73-.32-.85 0-1.46.21-1.82.63-.25.31-.42.74-.51 1.27h-3.49c.08-1.21.41-2.21 1.02-2.98Zm2.69 9.72c.34.28.75.42 1.24.42.78 0 1.5-.23 2.15-.69s1-1.29 1.02-2.5v-1.35c-.23.14-.46.26-.69.35-.23.09-.55.17-.96.25l-.81.15c-.76.14-1.31.3-1.64.5-.56.33-.84.84-.84 1.54 0 .62.17 1.06.52 1.33ZM147.63 234.32v2.7l-1.71.06c-1.71.06-2.88-.24-3.5-.89-.41-.42-.61-1.05-.61-1.92v-8.52h-1.93v-2.58h1.93v-3.86h3.58v3.86h2.25v2.58h-2.25v7.31c0 .57.07.92.22 1.06.14.14.58.21 1.32.21h.35c.12 0 .24 0 .36-.02ZM160.99 232.83c-.09.82-.52 1.65-1.28 2.5-1.19 1.35-2.84 2.02-4.98 2.02-1.76 0-3.31-.57-4.66-1.7s-2.02-2.98-2.02-5.54c0-2.4.61-4.23 1.82-5.51s2.79-1.92 4.73-1.92c1.15 0 2.19.22 3.11.65s1.68 1.11 2.29 2.04c.54.82.89 1.77 1.05 2.86.09.63.13 1.55.11 2.74h-9.47c.05 1.39.49 2.36 1.31 2.92.5.35 1.1.52 1.8.52.74 0 1.35-.21 1.82-.63.25-.23.48-.55.67-.95h3.69Zm-3.58-4.24c-.06-.96-.35-1.68-.87-2.18-.52-.49-1.17-.74-1.94-.74-.84 0-1.49.26-1.95.79s-.75 1.24-.87 2.13h5.62ZM70.52 259.5c-1.4 1.28-3.18 1.92-5.36 1.92-2.69 0-4.81-.86-6.35-2.59-1.54-1.74-2.31-4.11-2.31-7.13 0-3.27.88-5.79 2.63-7.55 1.52-1.54 3.46-2.31 5.81-2.31 3.15 0 5.45 1.03 6.91 3.1.8 1.16 1.24 2.32 1.29 3.49h-3.91c-.25-.9-.58-1.57-.98-2.03-.71-.81-1.76-1.22-3.16-1.22s-2.54.57-3.36 1.72c-.82 1.15-1.23 2.77-1.23 4.87s.43 3.67 1.3 4.72c.87 1.04 1.97 1.57 3.31 1.57s2.42-.45 3.14-1.35c.4-.48.73-1.21.99-2.17h3.87c-.34 2.04-1.2 3.7-2.59 4.98ZM86.53 248.81c1.17 1.46 1.75 3.2 1.75 5.19s-.58 3.77-1.75 5.21-2.94 2.16-5.32 2.16-4.15-.72-5.32-2.16c-1.17-1.44-1.75-3.18-1.75-5.21s.58-3.73 1.75-5.19 2.94-2.2 5.32-2.2 4.15.73 5.32 2.2Zm-5.33.86c-1.06 0-1.87.38-2.44 1.12-.57.75-.86 1.82-.86 3.21s.29 2.46.86 3.21 1.39 1.13 2.44 1.13 1.87-.38 2.44-1.13.85-1.82.85-3.21-.28-2.46-.85-3.21-1.38-1.12-2.44-1.12ZM96.58 249.73c-1.23 0-2.07.52-2.53 1.56-.24.55-.36 1.25-.36 2.11v7.49h-3.61v-13.81h3.49v2.02c.47-.71.91-1.22 1.32-1.54.74-.56 1.69-.84 2.83-.84 1.43 0 2.6.38 3.51 1.12.91.75 1.36 1.99 1.36 3.73v9.32h-3.71v-8.42c0-.73-.1-1.29-.29-1.68-.36-.71-1.03-1.07-2.03-1.07ZM103.79 247.06h4.06l2.88 10.21 2.95-10.21h3.88l-4.99 13.84h-3.82l-4.96-13.84ZM130.64 256.83c-.09.82-.52 1.65-1.28 2.5-1.19 1.35-2.84 2.02-4.98 2.02-1.76 0-3.31-.57-4.66-1.7s-2.02-2.98-2.02-5.54c0-2.4.61-4.23 1.82-5.51s2.79-1.92 4.73-1.92c1.15 0 2.19.22 3.11.65s1.68 1.11 2.29 2.04c.54.82.89 1.77 1.05 2.86.09.63.13 1.55.11 2.74h-9.47c.05 1.39.49 2.36 1.31 2.92.5.35 1.1.52 1.8.52.74 0 1.35-.21 1.82-.63.25-.23.48-.55.67-.95h3.69Zm-3.58-4.24c-.06-.96-.35-1.68-.87-2.18-.52-.49-1.17-.74-1.94-.74-.84 0-1.49.26-1.95.79s-.75 1.24-.87 2.13h5.62ZM138.97 249.73c-1.23 0-2.07.52-2.53 1.56-.24.55-.36 1.25-.36 2.11v7.49h-3.61v-13.81h3.49v2.02c.47-.71.91-1.22 1.32-1.54.74-.56 1.69-.84 2.83-.84 1.43 0 2.6.38 3.51 1.12.91.75 1.36 1.99 1.36 3.73v9.32h-3.71v-8.42c0-.73-.1-1.29-.29-1.68-.36-.71-1.03-1.07-2.03-1.07ZM153.86 258.32v2.7l-1.71.06c-1.71.06-2.88-.24-3.5-.89-.41-.42-.61-1.05-.61-1.92v-8.52h-1.93v-2.58h1.93v-3.86h3.58v3.86h2.25v2.58h-2.25v7.31c0 .57.07.92.22 1.06.14.14.58.21 1.32.21h.35c.12 0 .24 0 .36-.02ZM159.1 242.07v3.34h-3.67v-3.34h3.67Zm0 4.99v13.84h-3.67v-13.84h3.67ZM173.34 248.81c1.17 1.46 1.75 3.2 1.75 5.19s-.58 3.77-1.75 5.21-2.94 2.16-5.32 2.16-4.15-.72-5.32-2.16c-1.17-1.44-1.75-3.18-1.75-5.21s.58-3.73 1.75-5.19 2.94-2.2 5.32-2.2 4.15.73 5.32 2.2Zm-5.33.86c-1.06 0-1.87.38-2.44 1.12-.57.75-.86 1.82-.86 3.21s.29 2.46.86 3.21 1.39 1.13 2.44 1.13 1.87-.38 2.44-1.13.85-1.82.85-3.21-.28-2.46-.85-3.21-1.38-1.12-2.44-1.12ZM183.39 249.73c-1.23 0-2.07.52-2.53 1.56-.24.55-.36 1.25-.36 2.11v7.49h-3.61v-13.81h3.49v2.02c.47-.71.91-1.22 1.32-1.54.74-.56 1.69-.84 2.83-.84 1.43 0 2.6.38 3.51 1.12.91.75 1.36 1.99 1.36 3.73v9.32h-3.71v-8.42c0-.73-.1-1.29-.29-1.68-.36-.71-1.03-1.07-2.03-1.07ZM201.48 247.69c1.08.69 1.71 1.89 1.87 3.58h-3.62c-.05-.47-.18-.83-.39-1.1-.4-.49-1.07-.74-2.03-.74-.79 0-1.35.12-1.68.37s-.5.53-.5.86c0 .42.18.71.53.9.36.19 1.61.53 3.77 1 1.44.34 2.52.85 3.24 1.54.71.69 1.07 1.56 1.07 2.6 0 1.37-.51 2.49-1.53 3.36-1.02.87-2.6 1.3-4.73 1.3s-3.78-.46-4.82-1.38c-1.04-.92-1.56-2.09-1.56-3.51h3.67c.08.64.24 1.1.5 1.37.45.48 1.28.72 2.49.72.71 0 1.28-.11 1.69-.32s.63-.53.63-.95-.17-.71-.51-.93-1.6-.58-3.77-1.09c-1.57-.39-2.67-.88-3.31-1.46-.64-.58-.96-1.41-.96-2.49 0-1.28.5-2.38 1.5-3.29 1-.92 2.41-1.38 4.23-1.38s3.14.34 4.23 1.03Z"/></g></svg>
