<svg xmlns="http://www.w3.org/2000/svg" xmlns:xlink="http://www.w3.org/1999/xlink" width="600" height="600" viewBox="0 0 600 600">
  <defs>
    <clipPath id="clip-Web_1920_1">
      <rect width="600" height="600"/>
    </clipPath>
  </defs>
  <g id="Web_1920_1" data-name="Web 1920 – 1" clip-path="url(#clip-Web_1920_1)">
    <g id="Group_1" data-name="Group 1" transform="translate(-658.469 -102.119)">
      <path id="Path_1" data-name="Path 1" d="M519.68,73.922H451.36A36.123,36.123,0,0,0,416.641,48.16H387.52c-5.039-16.238-20.16-28-37.52-28s-32.48,11.762-37.52,28H283.359A36.125,36.125,0,0,0,248.64,73.922H180.32a8.612,8.612,0,0,0-8.4,8.4V532a8.612,8.612,0,0,0,8.4,8.4H519.68a8.612,8.612,0,0,0,8.4-8.4V82.32a8.609,8.609,0,0,0-8.4-8.4ZM264.32,84V82.879a19.038,19.038,0,0,1,19.039-17.922H319.2c4.48,0,7.84-3.359,8.4-7.84a22.522,22.522,0,0,1,44.8,0c.559,4.48,3.922,7.84,8.4,7.84h35.84a19.035,19.035,0,0,1,19.039,17.922v7.84H264.321ZM511.28,523.6H188.72V90.72h58.238v8.4a8.612,8.612,0,0,0,8.4,8.4h188.72a8.612,8.612,0,0,0,8.4-8.4v-8.4h58.238l.008,432.88Z" transform="translate(608.469 121.84)"/>
      <path id="Path_2" data-name="Path 2" d="M438.48,446.88H318.08a8.4,8.4,0,0,0,0,16.8h120.4a8.4,8.4,0,0,0,0-16.8Z" transform="translate(608.469 121.84)"/>
      <path id="Path_3" data-name="Path 3" d="M470.4,396.48H318.08a8.4,8.4,0,1,0,0,16.8H470.4a8.4,8.4,0,0,0,0-16.8Z" transform="translate(608.469 121.84)"/>
      <path id="Path_4" data-name="Path 4" d="M318.08,346.08h120.4a8.4,8.4,0,0,0,0-16.8H318.08a8.4,8.4,0,0,0,0,16.8Z" transform="translate(608.469 121.84)"/>
      <path id="Path_5" data-name="Path 5" d="M470.4,278.88H318.08a8.4,8.4,0,0,0,0,16.8H470.4a8.4,8.4,0,0,0,0-16.8Z" transform="translate(608.469 121.84)"/>
      <path id="Path_6" data-name="Path 6" d="M318.08,228.48h120.4a8.4,8.4,0,0,0,0-16.8l-120.4,0a8.4,8.4,0,0,0,0,16.8Z" transform="translate(608.469 121.84)"/>
      <path id="Path_7" data-name="Path 7" d="M309.68,169.68a8.612,8.612,0,0,0,8.4,8.4H470.4a8.4,8.4,0,1,0,0-16.8H318.078A8.612,8.612,0,0,0,309.68,169.68Z" transform="translate(608.469 121.84)"/>
      <path id="Path_8" data-name="Path 8" d="M285.04,164.64a8.693,8.693,0,0,0-11.762,1.68L246.4,203.84l-10.078-14c-2.8-3.922-7.84-4.48-11.762-1.68s-4.48,7.84-1.68,11.762l16.8,23.52a8.4,8.4,0,0,0,13.438,0l33.6-47.039c2.8-3.922,2.242-8.961-1.68-11.762Z" transform="translate(608.469 121.84)"/>
      <path id="Path_9" data-name="Path 9" d="M285.04,282.24a8.693,8.693,0,0,0-11.762,1.68L246.4,321.44l-10.078-14c-2.8-3.922-7.84-4.48-11.762-1.68s-4.48,7.84-1.68,11.762l16.8,23.52a8.4,8.4,0,0,0,13.438,0L286.72,294c2.8-3.922,2.242-8.961-1.68-11.762Z" transform="translate(608.469 121.84)"/>
      <path id="Path_10" data-name="Path 10" d="M285.04,399.84a8.693,8.693,0,0,0-11.762,1.68L246.4,439.04l-10.078-14c-2.8-3.922-7.84-4.48-11.762-1.68s-4.48,7.84-1.68,11.762l16.8,23.52a8.4,8.4,0,0,0,13.438,0l33.6-47.039c2.8-3.922,2.242-8.961-1.68-11.762Z" transform="translate(608.469 121.84)"/>
    </g>
  </g>
</svg>
